<svg xmlns="http://www.w3.org/2000/svg" id="f_logo" viewBox="0 0 88.892 55.768">
  <g id="Group_88" data-name="Group 88" transform="translate(-90.29 -40.162)">
    <g data-name="Group 2" transform="translate(90.29 40.162)">
      <path data-name="Path 1" d="M211.8,123.4l-18.449-18.449,4.636-4.639L193.5,95.8l-9.149,9.152L211.8,132.405l14.256-14.281-4.488-4.49L211.8,123.4" transform="translate(-169.897 -76.637)" fill="#fdb811" fill-rule="evenodd"></path>
      <path data-name="Path 2" d="M243.611,77.053l-18.3-18.3L211.051,73.031l4.513,4.49,9.743-9.768,9.794,9.768,4.02,4.02,4.639,4.661-4.639,4.639,4.49,4.513,9.152-9.152-9.152-9.149" transform="translate(-183.425 -57.864)" fill="#fdb811" fill-rule="evenodd"></path>
      <path data-name="Path 3" d="M262.6,73l-7.229,7.226,4.022,4.022,3.207-3.181L274.932,93.4,262.6,105.733l-3.207-3.184-4.49-4.513L250.266,93.4l4.636-4.639-4.02-4.045L242.2,93.4l8.683,8.681,4.488,4.49L262.6,113.8,283,93.4,262.6,73" transform="translate(-199.207 -65.084)" fill="#fff" fill-rule="evenodd"></path>
      <path data-name="Path 4" d="M182.677,80.226,175.449,73l-20.4,20.4,20.4,20.4,7.229-7.226-4.045-4.022-3.184,3.184L163.115,93.4l12.333-12.333,3.184,3.181,4.513,4.513,4.636,4.639-4.636,4.636,4.02,4.045,8.684-8.681-8.684-8.684-4.488-4.49" transform="translate(-155.051 -65.084)" fill="#fff" fill-rule="evenodd"></path>
      <g data-name="Group 1" transform="translate(81.022)">
        <path data-name="Path 5" d="M328.844,59.429a3.935,3.935,0,1,1-3.923-3.934A3.9,3.9,0,0,1,328.844,59.429Zm-6.89,0a3.01,3.01,0,0,0,2.989,3.142,2.977,2.977,0,0,0,2.92-3.118,2.961,2.961,0,1,0-5.909-.023Zm2.359,2.063h-.887V57.558a7.509,7.509,0,0,1,1.471-.12,2.338,2.338,0,0,1,1.331.288,1.1,1.1,0,0,1,.373.863,1,1,0,0,1-.794.911v.048a1.157,1.157,0,0,1,.7.96,3.067,3.067,0,0,0,.28.983h-.957a3.45,3.45,0,0,1-.3-.959c-.07-.432-.3-.624-.793-.624h-.421Zm.024-2.23h.421c.49,0,.887-.168.887-.576,0-.36-.256-.6-.818-.6a2.065,2.065,0,0,0-.49.048Z" transform="translate(-320.974 -55.495)" fill="#fff"></path>
      </g>
    </g>
  </g>
</svg>